<svg version="1.2" baseProfile="tiny-ps" xmlns="http://www.w3.org/2000/svg" viewBox="0 0 666 666" width="666" height="666">
	<title>njc tatoo logo</title>
	<style>
		tspan { white-space:pre }
		.shp0 { fill: #000000 } 
		.shp1 { fill: #ffffff } 
	</style>
	<g id="Background">
		<path id="Path 0" class="shp0" d="M308.92 0.43C308.69 0.66 303.55 1.37 297.5 2.01C291.45 2.65 280.43 4.28 273 5.63C265.57 6.99 255.9 9.01 251.5 10.12C247.1 11.24 237.88 13.97 231 16.2C224.13 18.42 214 22.03 208.5 24.21C203 26.39 191.97 31.44 184 35.43C176.03 39.42 165.22 45.32 160 48.54C154.78 51.76 147.57 56.4 144 58.87C140.43 61.33 132.55 67.19 126.5 71.89C120.45 76.59 108.03 87.87 98.9 96.97C89.77 106.06 78.38 118.45 73.58 124.5C68.78 130.55 61.13 141.13 56.59 148C52.04 154.88 46.03 164.55 43.22 169.5C40.41 174.45 35.8 183.45 32.96 189.5C30.12 195.55 26.45 203.88 24.8 208C23.16 212.13 21.23 217.3 20.51 219.5C19.79 221.7 17.36 229.24 15.1 236.25C12.85 243.26 10.72 250.91 10.38 253.25C10.05 255.59 8.95 260.65 7.95 264.5C6.95 268.35 5.15 278.7 3.94 287.5C2.07 301.11 1.76 307.76 1.85 332C1.91 347.68 2.44 363.88 3.04 368C3.63 372.13 5.04 381.13 6.17 388C7.3 394.88 9.72 406.35 11.55 413.5C13.38 420.65 15.96 429.88 17.29 434C18.62 438.13 20.65 443.75 21.8 446.5C22.94 449.25 25.09 454.65 26.57 458.5C28.05 462.35 30.83 468.88 32.75 473C34.66 477.13 39.38 486.13 43.24 493C47.1 499.88 52.39 508.65 54.99 512.5C57.59 516.35 63.76 524.9 68.7 531.5C73.63 538.1 80.54 546.65 84.05 550.5C87.56 554.35 94.04 561.1 98.46 565.5C102.88 569.9 108.53 575.32 111 577.55C113.48 579.78 119.1 584.54 123.5 588.13C127.9 591.71 137.13 598.59 144 603.41C150.88 608.24 161.68 615.11 168 618.69C174.32 622.27 184 627.35 189.5 629.97C195 632.59 203.78 636.42 209 638.48C214.22 640.54 222.32 643.48 227 645.03C231.68 646.57 239.1 648.82 243.5 650.02C247.9 651.23 252.63 652.58 254 653.04C255.38 653.49 261.45 654.77 267.5 655.89C273.55 657 283.68 658.65 290 659.56C296.32 660.47 311.4 661.44 323.5 661.73C336.34 662.03 351.33 661.77 359.5 661.1C367.2 660.47 377.1 659.31 381.5 658.52C385.9 657.74 392.43 656.59 396 655.98C399.57 655.36 407.68 653.58 414 652.01C420.32 650.45 430.23 647.61 436 645.7C441.77 643.79 449.43 641.11 453 639.74C456.57 638.37 462.65 635.81 466.5 634.06C470.35 632.31 477.32 628.93 482 626.56C486.68 624.19 495 619.66 500.5 616.48C506 613.31 513.42 608.68 517 606.18C520.58 603.69 525.75 600.08 528.5 598.17C531.25 596.25 535.51 593.06 537.98 591.09C540.44 589.11 543.8 586.38 545.45 585C547.09 583.63 551.15 580.03 554.47 577.01C557.79 573.99 564.06 567.92 568.4 563.51C572.75 559.11 580.18 551 584.91 545.5C589.65 540 596.95 530.77 601.15 525C605.35 519.23 611.61 510 615.06 504.5C618.52 499 624.84 487.52 629.12 479C633.39 470.48 638.19 459.45 639.79 454.5C641.39 449.55 643.63 443.7 644.76 441.5C645.89 439.3 647.34 435.25 647.97 432.5C648.6 429.75 649.61 425.48 650.21 423C650.81 420.52 651.89 417.38 652.6 416C653.32 414.63 654.63 410.13 655.52 406C656.41 401.88 657.96 394.23 658.97 389C659.97 383.77 661.4 374.55 662.15 368.5C663.01 361.47 663.47 347.39 663.43 329.5C663.37 308.84 662.91 298.35 661.65 289.5C660.72 282.9 659.57 275.25 659.1 272.5C658.63 269.75 657.52 266.04 656.62 264.25C655.73 262.46 654.61 257.51 654.14 253.25C653.61 248.47 652.23 243.2 650.53 239.5C649.02 236.2 647.43 231.03 647 228C646.57 224.97 644.63 218.45 642.69 213.5C640.75 208.55 638.11 202.03 636.83 199C635.55 195.97 631.75 188.1 628.38 181.5C625.01 174.9 619.69 165.22 616.56 160C613.42 154.78 607.17 145.38 602.68 139.11C598.18 132.85 590.9 123.42 586.5 118.16C582.1 112.9 574 104.05 568.5 98.5C563 92.95 554.95 85.28 550.61 81.45C546.27 77.63 541.74 73.83 540.53 73C539.33 72.17 536.36 69.87 533.92 67.88C531.49 65.89 524.77 61.09 519 57.22C513.23 53.34 502.65 46.84 495.5 42.77C488.35 38.7 477.77 33.2 472 30.54C466.23 27.89 457 24.03 451.5 21.97C446 19.9 436.32 16.63 430 14.69C423.68 12.75 414.68 10.26 410 9.16C405.32 8.06 397.9 6.46 393.5 5.6C389.1 4.75 378.19 3.14 369.25 2.02C357.42 0.55 347.06 0 331.17 0C319.16 0 309.15 0.19 308.92 0.43Z" />
		<path id="Path 1" fill-rule="evenodd" class="shp1" d="M330.5 10.13C339.3 10.07 353.48 10.67 362 11.47C370.52 12.26 383.57 14.04 391 15.41C398.43 16.78 406.98 18.55 410 19.34C413.02 20.12 418.88 21.76 423 22.97C427.13 24.18 434.32 26.49 439 28.1C443.68 29.71 448.4 31.45 449.5 31.97C450.6 32.49 454.43 34.11 458 35.57C461.57 37.03 466.52 39.16 469 40.3C471.48 41.44 477.55 44.59 482.5 47.31C487.45 50.02 493.98 53.61 497 55.28C500.02 56.94 505.65 60.48 509.5 63.12C513.35 65.77 518.52 69.35 521 71.08C523.48 72.82 529.74 77.67 534.93 81.87C540.11 86.06 548.61 93.55 553.8 98.5C559 103.45 567.13 112 571.88 117.5C576.62 123 581.13 128.17 581.91 129C582.69 129.82 585.87 133.88 588.99 138C592.1 142.13 597.15 149.32 600.2 154C603.25 158.68 608.19 166.78 611.17 172C614.15 177.22 618.66 185.78 621.19 191C623.72 196.22 627.35 204.32 629.27 209C631.19 213.68 634.33 222.22 636.26 228C638.19 233.78 640.72 241.88 641.88 246C643.04 250.13 644.45 255.75 645.01 258.5C645.58 261.25 646.94 268.23 648.05 274C649.15 279.77 650.71 291.25 651.52 299.5C652.32 307.75 652.98 321.7 652.99 330.5C652.99 340.09 652.19 353.52 650.99 364C649.89 373.63 648.07 386.23 646.93 392C645.8 397.77 644.05 405.65 643.04 409.5C642.03 413.35 639.53 421.68 637.5 428C635.46 434.32 631.78 444.45 629.32 450.5C626.85 456.55 622.46 466.23 619.54 472C616.62 477.77 613.3 484.07 612.15 486C610.99 487.93 609.08 491.3 607.88 493.5C606.69 495.7 603.45 500.88 600.68 505C597.91 509.13 592.8 516.44 589.32 521.25C585.84 526.06 582.44 529.98 581.75 529.96C581.06 529.94 577.8 525.62 574.5 520.35C571.2 515.08 566.82 507.79 564.77 504.14C562.71 500.49 561 496.6 560.97 495.5C560.94 494.38 557.97 490.74 554.2 487.19C547.53 480.91 547.48 480.88 542 481.09C538.98 481.21 535.04 481.24 533.25 481.15C530.66 481.03 529.37 480.13 526.91 476.75C523.9 472.62 523.83 472.27 524.96 456.5L512.5 445.24L513.94 441.87C514.73 440.02 516.47 436.7 517.81 434.5C519.45 431.79 520.4 428.41 520.76 424C521.05 420.43 520.99 415.81 520.64 413.75C520.23 411.33 518.79 408.85 516.58 406.75C514.7 404.96 509.03 399.68 503.98 395C498.93 390.32 479.2 371.02 460.15 352.11C441.09 333.19 422.46 315.08 418.75 311.86C415.04 308.64 410.76 305.71 409.25 305.37C407.74 305.02 404.7 305.04 402.5 305.41C400.3 305.78 396.58 306.41 394.24 306.79C391.59 307.23 389.98 307.12 389.98 306.5C389.99 305.95 391.91 304.3 394.25 302.84C396.59 301.38 402.58 297.33 407.57 293.84C412.55 290.35 421.7 283.9 427.89 279.5C434.08 275.1 441.25 270.03 443.82 268.22C446.4 266.42 449.4 264.32 450.5 263.55C451.6 262.78 458.42 257.95 465.67 252.82C472.91 247.7 482.96 240.57 488 237C493.04 233.43 498.14 229.84 499.33 229.03C500.52 228.22 512.3 220.4 525.5 211.64C538.7 202.88 552.65 194.18 556.5 192.3C563.31 188.99 563.73 188.91 572 189.57C577.56 190.01 581.71 189.84 584 189.08C586.19 188.35 588.41 186.53 589.92 184.21C591.88 181.2 592.41 178.89 592.72 172C593.05 164.63 592.79 162.9 590.79 159C589.28 156.04 586.77 153.37 583.49 151.21C579.77 148.76 577.42 147.93 574.25 147.96C570.78 147.99 569.44 148.59 566.94 151.25C565.26 153.04 562.84 156.53 561.57 159C560.3 161.47 558.19 166.29 556.88 169.7C554.76 175.24 554.66 176.08 556 177.52C556.83 178.41 558.4 179 559.5 178.82C560.86 178.6 561.98 177.07 563 174C563.83 171.53 565.76 167.25 567.3 164.5C568.85 161.75 571.32 158.63 572.8 157.57C575.47 155.66 575.53 155.66 579 157.69C580.92 158.82 583.53 161.26 584.78 163.12C586.03 164.98 587.04 167.96 587.03 169.75C587.01 171.54 586.33 174.57 585.5 176.5C584.67 178.43 582.99 180.51 581.75 181.12C580.24 181.87 576.69 182 571 181.51C563.44 180.86 562.06 181.02 558.5 182.9C556.3 184.06 553.94 185.01 553.25 185C552.56 185 552.01 185.34 552.03 185.75C552.04 186.16 550.92 187.06 549.53 187.75C548.14 188.44 541.04 192.96 533.75 197.8C526.46 202.64 516.19 209.5 510.93 213.05C505.67 216.6 500.67 219.95 499.82 220.5C498.96 221.05 494.72 223.94 490.38 226.92C486.05 229.9 482.27 232.6 482 232.92C481.73 233.24 474.86 238 466.75 243.5C458.64 249 448.97 255.65 445.25 258.27C441.54 260.9 435.57 265.08 432 267.56C428.43 270.05 421.83 274.65 417.35 277.79C412.87 280.93 404.77 286.69 399.35 290.59C393.93 294.5 386.46 299.78 382.75 302.34C379.04 304.9 375.58 306.89 375.07 306.75C374.55 306.61 371.4 303.91 368.07 300.75C364.73 297.59 362 294.32 362 293.5C362 292.68 362.45 291.77 363 291.5C363.55 291.23 365.95 287.96 368.32 284.25C370.7 280.54 373.4 276.26 374.32 274.75C375.25 273.24 375.99 270.54 375.99 268.75C375.98 266.96 375.42 264.08 374.74 262.34C373.81 259.98 373.79 258.84 374.63 257.84C375.26 257.1 378.61 255.82 382.09 255C387.87 253.63 388.64 253.12 391.24 249C392.8 246.53 394.35 243.38 394.69 242C395.09 240.35 394.48 237.98 392.9 235.01C391.58 232.55 389.15 228.98 387.5 227.09C385.85 225.2 382.48 222.37 380 220.81C377.52 219.25 374.38 217.99 373 218.02C371.63 218.04 369.78 218.61 368.91 219.28C368.03 219.95 365.67 221.96 363.66 223.75C360.39 226.66 359.94 227.66 359.39 233.25C359.05 236.69 358.27 240.11 357.64 240.86C356.78 241.88 355.02 242.04 350.5 241.51C345.49 240.93 343.8 241.16 340.25 242.9C337.91 244.06 333.64 247.24 330.75 249.98C327.86 252.72 325.16 254.97 324.75 254.98C324.34 254.99 322.09 252.64 319.76 249.75C317.43 246.86 315.07 244.15 314.51 243.72C313.96 243.29 311.48 243.22 309 243.55C306.52 243.88 303.42 244.91 302.11 245.83C300.8 246.75 299.12 247.95 298.4 248.5C297.44 249.23 296.21 248.68 293.91 246.5C292.18 244.85 290.13 242.04 289.38 240.25C288.62 238.46 285.98 234.41 283.52 231.25C281.06 228.09 278.31 224.82 277.43 224C276.54 223.18 269.82 216.43 262.49 209C255.16 201.57 246.54 192.84 237.5 183.67L237 175.25C236.54 167.48 236.27 166.63 233.5 164.09C230.56 161.39 230.27 161.34 218.29 161.42C207.33 161.49 205.92 161.7 204.51 163.5C203.41 164.9 203.07 166.86 203.39 170C203.64 172.47 203.32 175.48 202.67 176.68C202.03 177.89 195.99 184.52 189.25 191.43C182.51 198.35 176.32 204 175.5 204C174.68 204 174 203.78 174 203.5C174 203.22 175.19 200.64 176.64 197.75C178.09 194.86 180.79 188.34 182.64 183.25C184.49 178.16 186.02 172.31 186.04 170.25C186.07 168.19 185.51 165.96 184.79 165.3C184.08 164.64 181.03 163.23 178 162.18C172.51 160.26 172.5 160.25 172.8 156.38C172.96 154.25 172.84 149.35 172.52 145.5C172.05 139.8 171.3 137.48 168.45 133C166.53 129.97 162.72 125.81 159.98 123.75C155.27 120.2 154.61 120 147.75 120.04C143.76 120.07 138.7 120.75 136.5 121.55C134.3 122.36 129.69 125.15 126.26 127.76C121.44 131.41 119.78 133.36 119.01 136.25C118.45 138.31 117.33 140.68 116.5 141.5C115.67 142.32 114.21 142.8 113.25 142.56C112.29 142.33 108.13 141.17 104 140C99.88 138.83 93.91 137 90.75 135.94C87.59 134.87 84.44 134.22 83.75 134.49C83.06 134.76 81.83 134.59 81 134.11C79.8 133.41 81.42 131.05 89 122.42C94.22 116.47 102.78 107.35 108 102.15C113.22 96.95 122 88.93 127.5 84.31C133 79.69 139.97 74.22 143 72.14C146.03 70.07 151.43 66.34 155 63.86C158.57 61.37 165.78 56.85 171 53.8C176.22 50.76 185.45 45.81 191.5 42.82C197.55 39.83 207.68 35.31 214 32.79C220.32 30.27 227.97 27.45 231 26.53C234.03 25.61 237.4 24.47 238.5 23.99C239.6 23.51 243.43 22.44 247 21.6C250.57 20.76 257.1 19.16 261.5 18.04C265.9 16.92 273.77 15.3 279 14.43C284.23 13.57 294.35 12.27 301.5 11.55C308.65 10.82 321.7 10.18 330.5 10.13ZM497.5 43C500.8 44.82 503.95 46.76 504.5 47.31C505.05 47.87 502.8 46.85 499.5 45.05C496.2 43.25 493.05 41.31 492.5 40.74C491.95 40.17 494.2 41.18 497.5 43Z" />
		<path id="Path 2" class="shp0" d="M225 44.5C225 45.05 228.94 51.98 233.75 59.9C238.56 67.83 243.18 74.63 244 75.03C244.82 75.43 247.3 76.59 249.5 77.61L253.5 79.46C246.24 79.98 246.07 80.15 247.06 82.25C248.02 84.29 248.59 84.44 253.31 83.86C256.16 83.52 261.09 82.62 264.25 81.86C267.47 81.1 270.01 79.95 270 79.25C270 78.56 269.1 77.55 268 77C266.9 76.45 266 75.1 266 74C266 72.9 264.52 70.09 262.7 67.75C260.89 65.41 259.05 62.6 258.63 61.5C258.2 60.4 255.75 56.02 253.18 51.77L248.5 44.05C229.4 43.6 225 43.87 225 44.5ZM290.19 59.1C290.36 67.4 290.84 74.38 291.25 74.6C291.66 74.82 292.44 74.21 292.97 73.25C293.83 71.7 293.94 71.76 293.97 73.75C293.99 75.1 293.4 76 292.5 76C291.23 76 291 78.37 290.99 91.25L290.98 106.5C299.44 120.45 303 126.53 304.34 129C305.69 131.47 308.63 136.65 310.89 140.5L314.98 147.5L314.96 44L289.88 44L290.19 59.1ZM335.79 46.26C334.56 47.87 334.35 48.99 335.04 50.25C335.57 51.21 335.66 52.56 335.25 53.25C334.84 53.94 334.27 70.4 334 89.83L333.5 125.16C327.69 130.46 325.1 132 324 132C322.18 132 322 132.67 322 139.5C322 144.67 322.37 147 323.2 147C324.12 147 324.12 147.29 323.18 148.25C322.51 148.94 321.97 151.19 321.98 153.25L322 157C331.81 156.18 336.66 154.92 339.5 153.56C342.25 152.25 346.19 149.33 348.25 147.08C350.31 144.84 353.13 140.75 354.5 138C355.88 135.25 357.68 130.41 358.51 127.25C359.69 122.71 360.01 114.82 360.01 89.75C360 58.5 359.97 58.01 358 58.5C356.7 58.82 355.56 58.3 354.75 57C354.06 55.89 352.6 54.99 351.5 54.99C349.94 54.99 350.15 54.66 352.5 53.46C354.15 52.62 355.61 51.95 355.75 51.97C355.89 51.99 355.89 52.79 355.75 53.75C355.61 54.75 356.14 55.5 357 55.5C357.82 55.5 358.83 55.95 359.23 56.5C359.65 57.06 359.98 56.74 359.98 55.75C359.99 54.79 359.44 53.85 358.75 53.66C357.76 53.39 357.76 53.03 358.77 51.91C359.48 51.14 359.93 49.15 359.77 47.5L359.5 44.5C345.46 44.12 343.87 44.33 345 45.17C346.15 46.01 346.26 46.83 345.5 48.63C344.95 49.92 344.16 50.99 343.75 50.99C343.34 51 343 50.33 343 49.5C343 48.67 342.1 47.1 341 46C339.9 44.9 338.66 44.01 338.25 44.01C337.84 44.02 336.73 45.03 335.79 46.26ZM401 45.81C397.98 46.77 393.02 49.12 390 51.03C386.98 52.94 382.76 56.07 380.64 58C378.51 59.92 375.29 64.2 373.46 67.5C371.64 70.8 369.22 76.31 368.08 79.75C366.9 83.28 365.72 90.24 365.36 95.75C364.99 101.41 365.09 105.19 365.61 104.76C366.1 104.36 367.05 104.81 367.72 105.76C368.39 106.72 368.95 107.84 368.97 108.25C368.99 108.66 368.32 109 367.5 109C366.54 109 366.09 109.81 366.25 111.25C366.42 112.79 367.13 113.47 368.5 113.41C369.6 113.37 372.41 113.03 374.75 112.66C378.27 112.11 378.91 112.26 378.5 113.5C378.18 114.45 376.72 115 374.5 115C372.57 115 370.77 115.45 370.5 116C370.23 116.55 369.32 116.78 368.5 116.5C367.24 116.08 367.3 116.83 368.87 121.25C369.9 124.14 371.7 128.19 372.87 130.25C374.04 132.31 375.45 134 376 134C376.55 134 377 134.68 377 135.5C377 136.32 377.68 137.22 378.5 137.5C379.32 137.78 379.99 138.56 379.97 139.25C379.95 139.94 382.09 142.34 384.72 144.6C387.35 146.85 390.85 149.41 392.5 150.28C394.21 151.19 396.57 151.63 398 151.3C399.67 150.91 400.83 151.25 401.5 152.3C402.05 153.17 403.98 154.25 405.78 154.69C408.96 155.47 409.06 155.41 408.78 152.59C408.6 150.76 407.85 149.55 406.75 149.34C405.79 149.15 405 148.55 405 148C405 147.44 405.67 147.33 406.5 147.75C407.44 148.22 408.76 147.76 410.05 146.5L412.1 144.5C410.78 150.62 410.89 151.31 411.8 150.75C412.46 150.34 412.77 149.32 412.5 148.5C412.17 147.5 412.67 147 414 147C415.1 147 416 146.55 416 146C416 145.45 415.21 144.52 414.25 143.94C413.03 143.2 412.88 142.75 413.75 142.44C414.44 142.2 415 141.1 415 140C415 138.44 414.33 138 412 138C410 138 409 138.5 409 139.5C409 140.32 408.44 141.01 407.75 141.03C407.06 141.04 406.18 140.71 405.78 140.28C405.39 139.85 406.17 138.71 407.53 137.75C408.89 136.79 410.68 136 411.5 136C412.32 136 413 135.55 413 135C413 134.45 411.99 133.99 410.75 133.98C409.51 133.96 406.48 132.65 404 131.06C401.52 129.46 398.84 126.88 398.04 125.33C397.23 123.77 395.83 121.38 394.92 120C394.01 118.63 392.52 113.9 391.62 109.5C390.72 105.1 389.51 101.28 388.94 101C388.3 100.69 388.52 99.92 389.5 99C390.39 98.17 391.05 96.15 390.98 94.5C390.91 92.85 391.37 89.47 391.99 87C392.61 84.53 394.23 80.47 395.59 78C396.95 75.53 398.05 72.94 398.03 72.25C398.01 71.56 398.45 71.22 399 71.5C399.55 71.78 401.69 70.64 403.75 68.98C405.81 67.32 408.63 65.75 410 65.5C411.38 65.24 413.29 64.24 414.26 63.27C415.62 61.9 416.06 59.59 416.21 53L416.41 44.5C408.73 44.16 404.02 44.85 401 45.81ZM421 54L421 64C427.59 65.45 431.64 67.48 434.25 69.44C437 71.5 440.23 75.21 441.92 78.25C443.52 81.14 445.57 84.17 446.48 85C447.95 86.34 448.77 86.19 454.31 83.53C457.72 81.89 461.29 79.76 462.25 78.78C463.21 77.8 464.68 77.22 465.5 77.5C466.54 77.85 467 77.31 466.99 75.75C466.99 74.51 465.7 71.25 464.14 68.5C462.57 65.75 459.09 61.25 456.4 58.49C453.7 55.74 448.8 52.05 445.5 50.29C442.2 48.53 437.25 46.41 434.5 45.56C431.75 44.71 427.59 44.02 425.25 44.01L421 44L421 54ZM223.97 65.75C223.99 74.22 224.41 80.2 225 80.5C225.55 80.78 227.46 80.32 229.25 79.48C231.04 78.64 232.95 77.98 233.5 78.01C234.05 78.04 235.27 77.26 236.22 76.28C237.85 74.59 237.63 73.96 231.72 63.85C228.3 58 225.15 52.82 224.72 52.35C224.29 51.88 223.96 57.91 223.97 65.75Z" />
		<path id="Path 3" class="shp1" d="M255.63 73.83C255.84 74.47 255.55 75.22 255 75.5C254.44 75.78 254.77 76.65 255.75 77.47C256.71 78.28 258.51 78.95 259.75 78.97C261.02 78.99 262.43 78.13 263 77C263.87 75.27 263.63 74.95 261.25 74.64C259.74 74.44 257.77 73.92 256.88 73.47C255.82 72.94 255.39 73.06 255.63 73.83ZM550.5 81.13C554.9 85.15 563 92.97 568.5 98.51C574 104.06 582.1 112.9 586.5 118.16C590.9 123.42 598.18 132.85 602.68 139.11C607.17 145.38 613.42 154.78 616.56 160C619.69 165.22 625.01 174.9 628.38 181.5C631.75 188.1 635.55 195.97 636.83 199C638.11 202.03 640.75 208.55 642.69 213.5C644.63 218.45 646.57 224.97 647 228C647.43 231.03 649.02 236.2 650.53 239.5C652.23 243.2 653.61 248.47 654.14 253.25C654.61 257.51 655.73 262.46 656.62 264.25C657.52 266.04 658.63 269.75 659.1 272.5C659.57 275.25 660.72 282.9 661.65 289.5C662.91 298.35 663.37 308.84 663.43 329.5C663.47 347.39 663.01 361.47 662.15 368.5C661.4 374.55 659.97 383.77 658.97 389C657.96 394.23 656.41 401.88 655.52 406C654.63 410.13 653.32 414.63 652.6 416C651.89 417.38 650.81 420.52 650.21 423C649.61 425.48 648.6 429.75 647.97 432.5C647.34 435.25 645.89 439.3 644.76 441.5C643.63 443.7 641.39 449.55 639.79 454.5C638.19 459.45 633.39 470.48 629.12 479C624.84 487.52 618.52 499 615.06 504.5C611.61 510 605.35 519.23 601.15 525C596.95 530.77 589.65 540 584.91 545.5C580.18 551 572.75 559.11 568.4 563.51C564.06 567.92 557.79 573.99 554.47 577.01C551.15 580.03 547.09 583.63 545.45 585C543.8 586.38 540.44 589.11 537.98 591.09C535.51 593.06 531.25 596.25 528.5 598.17C525.75 600.08 520.58 603.69 517 606.18C513.42 608.68 506 613.31 500.5 616.48C495 619.66 486.68 624.19 482 626.56C477.32 628.93 470.35 632.31 466.5 634.06C462.65 635.81 456.57 638.37 453 639.74C449.43 641.11 441.77 643.79 436 645.7C430.23 647.61 420.32 650.45 414 652.01C407.68 653.58 399.57 655.36 396 655.98C392.43 656.59 385.9 657.74 381.5 658.52C377.1 659.31 367.2 660.47 359.5 661.1C351.33 661.77 336.34 662.03 323.5 661.73C311.4 661.44 296.32 660.47 290 659.56C283.68 658.65 273.55 657 267.5 655.89C261.45 654.77 255.38 653.49 254 653.04C252.63 652.58 247.9 651.23 243.5 650.02C239.1 648.82 231.68 646.57 227 645.03C222.32 643.48 214.22 640.54 209 638.48C203.78 636.42 195 632.59 189.5 629.97C184 627.35 174.32 622.27 168 618.69C161.68 615.11 150.88 608.24 144 603.41C137.13 598.59 127.9 591.71 123.5 588.13C119.1 584.54 113.48 579.78 111 577.55C108.53 575.32 102.88 569.9 98.46 565.5C94.04 561.1 87.56 554.35 84.05 550.5C80.54 546.65 73.63 538.1 68.7 531.5C63.76 524.9 57.59 516.35 54.99 512.5C52.39 508.65 47.1 499.88 43.24 493C39.38 486.13 34.66 477.13 32.75 473C30.83 468.88 28.05 462.35 26.57 458.5C25.09 454.65 22.94 449.25 21.8 446.5C20.65 443.75 18.62 438.13 17.29 434C15.96 429.88 13.38 420.65 11.55 413.5C9.72 406.35 7.3 394.88 6.17 388C5.04 381.13 3.63 372.13 3.04 368C2.44 363.88 1.91 347.68 1.85 332C1.76 308.04 2.09 300.95 3.89 287.5C5.08 278.7 5.84 271.27 5.6 271C5.35 270.73 4.45 275.45 3.59 281.5C2.73 287.55 1.57 297.23 1.01 303C0.44 308.77 -0.01 322.39 -0.01 333.25C0 344.11 0.69 359.64 1.53 367.75C2.38 375.86 4.42 389.25 6.07 397.5C7.72 405.75 10.89 418.8 13.12 426.5C15.34 434.2 19.65 446.8 22.68 454.5C25.72 462.2 31.24 474.57 34.95 482C38.65 489.43 43.85 499.1 46.5 503.5C49.15 507.9 54.37 516 58.09 521.5C61.82 527 68.81 536.45 73.62 542.5C78.44 548.55 89.15 560.28 97.44 568.56C105.72 576.85 117.45 587.56 123.5 592.38C129.55 597.19 139 604.18 144.5 607.91C150 611.63 158.1 616.85 162.5 619.5C166.9 622.15 176.57 627.35 184 631.05C191.43 634.76 203.8 640.28 211.5 643.32C219.2 646.35 231.8 650.66 239.5 652.88C247.2 655.11 260.25 658.28 268.5 659.93C276.75 661.58 290.14 663.62 298.25 664.47C306.36 665.31 322 666 333 666C344 666 359.64 665.31 367.75 664.47C375.86 663.62 389.25 661.58 397.5 659.93C405.75 658.28 418.8 655.11 426.5 652.88C434.2 650.66 446.8 646.35 454.5 643.32C462.2 640.28 474.57 634.76 482 631.05C489.43 627.35 499.1 622.15 503.5 619.5C507.9 616.85 516 611.63 521.5 607.91C527 604.18 536.45 597.19 542.5 592.38C548.55 587.56 560.28 576.85 568.56 568.56C576.85 560.28 587.56 548.55 592.38 542.5C597.19 536.45 604.18 527 607.91 521.5C611.63 516 616.85 507.9 619.5 503.5C622.15 499.1 627.35 489.43 631.05 482C634.76 474.57 640.28 462.2 643.32 454.5C646.35 446.8 650.66 434.2 652.88 426.5C655.11 418.8 658.28 405.75 659.93 397.5C661.58 389.25 663.62 375.86 664.47 367.75C665.31 359.64 666 344 666 333C666 322 665.31 306.36 664.47 298.25C663.62 290.14 661.58 276.75 659.93 268.5C658.28 260.25 655.11 247.2 652.88 239.5C650.66 231.8 646.35 219.2 643.32 211.5C640.28 203.8 634.76 191.43 631.05 184C627.35 176.57 622.15 166.9 619.5 162.5C616.85 158.1 611.63 150 607.91 144.5C604.18 139 597.16 129.55 592.32 123.5C587.47 117.45 578.33 107.17 572 100.65C565.68 94.13 556.45 85.43 551.5 81.31L542.5 73.83L550.5 81.13Z" />
		<path id="Path 4" class="shp0" d="M232.03 80.75C232.01 81.44 231.3 82.73 230.45 83.63C229.59 84.52 227.79 85.19 226.45 85.13C224.37 85.02 224 85.45 224 88C224 90.43 224.34 90.88 225.75 90.38C226.71 90.05 229.07 89.42 231 88.99C232.93 88.56 236.64 87.93 239.25 87.6C242.08 87.24 243.99 86.49 243.98 85.75C243.98 85.06 243.56 83.83 243.06 83C242.33 81.78 241.86 81.73 240.58 82.75C239.59 83.54 238.81 83.63 238.5 83C238.22 82.45 237.21 82.13 236.25 82.29C235.29 82.44 233.95 81.88 233.28 81.04C232.45 79.99 232.05 79.9 232.03 80.75ZM268.5 85.24C267.4 85.89 266.05 86.53 265.5 86.67C264.95 86.81 262.7 87.36 260.5 87.9C258.3 88.44 255.25 88.57 253.73 88.19C252.08 87.78 250.96 87.91 250.96 88.5C250.97 89.05 251.66 90.4 252.49 91.5C253.33 92.6 256.31 97.33 259.12 102C261.93 106.67 269.8 119.84 276.61 131.25C283.94 143.52 289.61 152 290.5 152C291.36 152 291.89 152.75 291.75 153.75C291.53 155.32 292.71 155.53 303.25 155.75C309.71 155.89 315 155.78 315 155.5C315 155.22 309.7 146.11 303.23 135.25C296.75 124.39 288.09 109.78 283.98 102.78C279.86 95.79 275.94 90.05 275.25 90.03C274.56 90.01 274.07 89.44 274.16 88.75C274.24 88.06 274.02 86.71 273.66 85.75C273.3 84.79 272.44 84.01 271.75 84.03C271.06 84.05 269.6 84.59 268.5 85.24Z" />
		<path id="Path 5" class="shp1" d="M96.98 97.75L84.5 110.5C104.27 91.13 110.01 85.39 110.01 85.25C110 85.11 109.88 85 109.73 85C109.59 85 103.85 90.74 96.98 97.75Z" />
		<path id="Path 6" class="shp0" d="M240.48 89.72C240.01 90.12 238.13 90.34 236.31 90.22C234.49 90.1 233 90.34 233 90.75C232.99 91.16 233.98 91.95 235.18 92.5C236.39 93.05 237.51 94.06 237.69 94.75C237.88 95.52 236.55 95.17 234.25 93.85C231.25 92.13 229.9 91.89 227.5 92.64L224.5 93.57L224.5 155.5L249 156C248.86 113.76 248.53 99.84 248.16 97.82C247.8 95.79 246.49 92.98 245.25 91.57C244.01 90.16 242.63 89 242.17 89C241.71 89 240.95 89.32 240.48 89.72Z" />
		<path id="Path 7" class="shp1" d="M377 97.9C376.18 98.38 375.84 99.28 376.25 99.89C376.66 100.5 376.29 101.67 375.43 102.5C374.56 103.33 374.25 104 374.73 104C375.21 104 376.03 103.51 376.55 102.92C377.2 102.18 378.14 102.15 379.5 102.82C380.6 103.37 382.74 103.63 384.25 103.41C385.85 103.17 387 102.37 387 101.5C387 100.67 386.21 99.99 385.25 99.97C384.29 99.95 382.6 99.27 381.5 98.45C380.4 97.63 379.27 96.98 379 97C378.73 97.02 377.82 97.42 377 97.9ZM382.64 115.27C381.07 115.88 379.38 116.97 378.89 117.69C378.4 118.41 377.32 119 376.5 119C375.68 119 374.61 118.21 374.14 117.25C373.32 115.58 373.25 115.58 372.64 117.25C372.18 118.51 372.7 119.28 374.5 120C375.88 120.55 377.45 121 378 121C378.55 121 379 120.44 379.01 119.75C379.01 119.06 380.14 117.94 381.51 117.25C383 116.5 384 116.4 384 117C384 117.55 385.05 118.11 386.34 118.25C388.46 118.48 388.57 118.29 387.52 116.25C386.88 115.01 386.16 114.04 385.93 114.08C385.69 114.12 384.21 114.66 382.64 115.27Z" />
		<path id="Path 8" class="shp0" d="M444.34 116.5C444.7 117.33 444.55 118.22 444 118.5C443.45 118.78 443.22 119.34 443.48 119.75C443.75 120.16 442.29 122.27 440.23 124.44C438.18 126.61 434.7 129.66 432.5 131.22C430.3 132.78 427.71 134.04 426.75 134.03C425.63 134.01 425.18 134.54 425.5 135.5C425.77 136.32 425.32 138.13 424.5 139.5C423.41 141.32 423.27 142.55 424 144C424.55 145.1 425 146.22 425 146.5C425 146.78 424.1 147.22 423 147.5C421.42 147.9 421 148.83 421 152C421 154.2 421.34 156 421.75 155.99C422.16 155.99 425.31 155.54 428.75 154.99C432.19 154.45 437.59 152.83 440.75 151.41C443.91 149.99 449.09 146.84 452.25 144.41C455.67 141.79 459.62 137.46 461.98 133.75C464.17 130.31 465.96 127.05 465.96 126.5C465.96 125.95 461.47 123.14 455.98 120.25C450.49 117.36 445.48 115 444.84 115C444.19 115 443.97 115.65 444.34 116.5Z" />
		<path id="Path 9" fill-rule="evenodd" class="shp1" d="M75.07 141C75.58 141 75.98 142.24 75.96 143.75C75.93 145.26 76.69 147.18 77.65 148C78.61 148.82 81.89 150.02 84.95 150.66C88 151.29 93.09 152.53 96.25 153.41C99.41 154.28 103.35 155.68 105 156.5C107.6 157.8 107.94 158.43 107.55 161.25C107.3 163.04 106.34 169.9 105.43 176.5C104.15 185.7 103.89 192.71 104.32 206.5C104.62 216.4 105.31 226.07 105.85 228C106.39 229.93 107.37 233.75 108.03 236.5C109.12 241.06 109.02 241.94 106.91 246.5C105.2 250.18 104.47 253.87 104.16 260.5C103.92 265.55 103.15 270.38 102.41 271.5C101.68 272.6 100.61 275.75 100.02 278.5C99.16 282.48 97.62 284.98 92.47 290.75C87.45 296.37 85.38 298.01 83.25 298.03C81.74 298.05 78.92 298.99 77 300.12C73.53 302.16 73.47 302.17 70 300.26C67.72 299.01 65.45 298.52 63.5 298.88C61.34 299.27 59.03 301.25 55.23 305.96C52.33 309.57 49.97 313.51 49.98 314.75C49.99 315.99 51.69 318.82 57.5 325.1L54.23 331.3C52.25 335.04 50.97 338.89 51.01 341C51.04 342.93 51.95 345.96 53.03 347.75C54.11 349.54 55.67 351 56.5 351C57.33 351 58.34 351.6 58.75 352.34C59.16 353.07 62.2 355.24 65.5 357.16C68.8 359.08 77.77 363.76 85.42 367.57C93.08 371.38 99.93 375.4 100.66 376.5C101.38 377.6 102.31 381.2 102.73 384.5C103.47 390.24 103.63 390.51 109.5 391.08L110.1 400.29C110.44 405.62 111.36 410.76 112.27 412.5C113.13 414.15 115.79 417.43 118.17 419.78C122.05 423.63 123.32 424.23 130.5 425.59C136.92 426.8 139.59 426.88 144 425.97C147.03 425.34 151.07 423.82 153 422.59C154.93 421.36 158.17 418.36 160.22 415.93C162.26 413.49 163.96 410.6 163.98 409.5C164.01 408.4 164.27 406.6 164.56 405.5C164.85 404.4 166.53 402.54 168.3 401.37C170.06 400.19 174.65 398.49 178.5 397.58C184.1 396.26 186.6 396.14 191 396.98C194.03 397.55 198.41 398.02 200.75 398.01C203.09 398 205.79 397.59 206.75 397.09C207.71 396.6 210.07 394.07 212 391.49C214.81 387.71 217.42 385.82 225.25 381.89C230.61 379.2 235.68 377 236.5 377C237.32 377 238.54 375.99 239.2 374.75C239.86 373.51 240.88 370.19 241.45 367.36C242.28 363.33 243.68 360.89 248 356.02C251.03 352.61 259.23 343.9 266.24 336.66C273.24 329.42 279.66 322.82 280.49 322C281.32 321.18 285.49 316.97 289.75 312.66C296.57 305.76 297.83 304.89 300.25 305.41C301.76 305.74 304.46 307.53 306.25 309.41C308.04 311.29 310.63 313.14 312 313.53C313.58 313.97 315.7 313.64 317.75 312.62C319.54 311.73 321.45 311.23 322 311.5C322.55 311.77 323.23 313.35 323.5 315C323.83 317 324.75 318.22 326.25 318.67C327.49 319.04 330.07 319.25 332 319.14C333.93 319.03 336.74 318.06 338.25 316.97C339.76 315.89 341.56 315.31 342.25 315.69C342.94 316.06 345.2 317.75 347.28 319.44C349.36 321.12 351.04 323.06 351.03 323.75C351.01 324.44 348.41 326.69 345.25 328.75C342.09 330.81 339.05 332.85 338.5 333.28C337.95 333.71 334.95 335.96 331.83 338.28C328.72 340.6 321.29 345.94 315.33 350.14C309.37 354.35 303.82 358.53 303 359.44C302.18 360.35 301.05 361.09 300.5 361.08C299.95 361.08 296.57 363.21 293 365.81C289.43 368.41 283.92 372.33 280.77 374.52C277.61 376.71 271.31 381.1 266.77 384.27C262.22 387.45 256.25 391.61 253.5 393.53C250.75 395.45 246.2 398.7 243.39 400.76C240.58 402.82 234.57 407.2 230.04 410.5C225.51 413.8 220.83 417.17 219.65 417.98C218.47 418.8 211.65 423.67 204.5 428.82C192.36 437.55 191.25 438.12 187.75 437.58C184.44 437.07 183.32 437.51 178.25 441.33C175.09 443.71 169.48 447.87 165.79 450.58C162.1 453.28 157.15 456.89 154.79 458.58C152.43 460.27 144.72 465.9 137.65 471.08C130.58 476.26 122.06 482.52 118.73 485C115.39 487.48 112.18 490.4 111.58 491.49C110.99 492.59 109.49 494.5 108.25 495.74C107.01 496.98 105.55 498 105 498C104.45 498 102.31 499.51 100.25 501.36C98.19 503.2 95.49 505.23 94.25 505.86C92.95 506.52 91.98 507.95 91.96 509.25C91.93 510.49 92.63 512.17 93.5 513C94.37 513.83 95.07 515.51 95.04 516.75C95.02 517.99 95.56 519.27 96.25 519.61C96.94 519.94 98.85 518.86 100.5 517.22C102.15 515.57 104.85 513.56 106.5 512.74C108.15 511.92 110.85 509.71 112.5 507.82C114.21 505.88 116.9 504.1 118.75 503.7C120.54 503.31 126.68 499.51 132.41 495.25C138.13 490.99 148.32 483.45 155.04 478.5C161.77 473.55 169.62 467.93 172.48 466C175.35 464.07 181.14 460.02 185.36 457C191.75 452.42 193.03 451.04 193.02 448.75C193 446.59 194.13 445.14 198.25 442.03C201.14 439.85 210.03 433.44 218.02 427.78C226 422.13 233.49 416.82 234.67 416C235.84 415.18 242.13 410.68 248.64 406C255.15 401.32 261.61 396.73 262.99 395.8C264.37 394.86 268.2 392.07 271.5 389.61C274.8 387.14 281.77 382.16 287 378.53C292.23 374.91 299.47 369.82 303.11 367.22C306.74 364.62 313.26 359.99 317.61 356.93C321.95 353.86 331.13 347.46 338 342.7C344.88 337.94 351.63 333.14 353 332.03C354.38 330.93 356.06 330.02 356.75 330.01C357.44 330.01 358.15 330.56 358.33 331.25C358.51 331.94 358.3 333.85 357.86 335.5C357.42 337.15 356.37 341.43 355.54 345C354.7 348.57 354.03 353.52 354.05 356C354.08 359.58 354.71 361.21 357.18 364C358.88 365.93 368.43 376.05 378.39 386.49C388.35 396.94 400.17 409.31 404.65 413.99C409.13 418.67 420.9 430.82 430.8 441C440.7 451.18 450.31 461.24 452.15 463.38C453.99 465.51 456.74 467.87 458.25 468.63C459.76 469.38 463.02 470 465.5 470C467.98 470 472.36 469.52 475.25 468.93C478.14 468.35 482.19 467.22 484.25 466.43C486.31 465.64 489.46 464.99 491.25 464.97C494.15 464.95 496.87 467.27 516.5 486.53C528.6 498.4 541.87 510.67 545.98 513.8C550.1 516.94 557.07 521.67 561.48 524.32C565.89 526.97 571.66 530.12 574.29 531.32C576.92 532.52 579.05 533.73 579 534C578.96 534.27 576.52 537.2 573.58 540.5C570.63 543.8 564.69 550.15 560.36 554.61C556.04 559.08 548.67 566.05 544 570.12C539.33 574.18 532.58 579.81 529 582.63C525.42 585.44 516.88 591.52 510 596.12C503.13 600.73 496.6 604.99 495.5 605.58C494.4 606.18 486.98 610.04 479 614.16C471.02 618.28 460.9 623.14 456.5 624.96C452.1 626.78 442.65 630.25 435.5 632.68C428.35 635.11 418.9 638.01 414.5 639.13C410.1 640.25 401.32 642.26 395 643.6C388.68 644.94 377.43 646.8 370 647.73C360.48 648.92 349.42 649.4 332.5 649.35C316.28 649.31 304.28 648.75 295.5 647.62C288.35 646.7 279.13 645.28 275 644.46C270.88 643.64 265.02 642.47 262 641.85C258.98 641.23 251.1 639.19 244.5 637.31C237.9 635.44 229.57 632.83 226 631.51C222.43 630.19 216.57 628 213 626.65C209.43 625.29 204.25 623.08 201.5 621.73C198.75 620.38 193.13 617.66 189 615.68C184.88 613.7 177.56 609.81 172.75 607.04C167.94 604.27 159.05 598.63 153 594.5C146.95 590.38 137.39 583.3 131.75 578.77C126.11 574.24 115.2 564.35 107.5 556.79C99.8 549.23 89.3 537.75 84.17 531.27C79.04 524.8 72.86 516.8 70.44 513.5C68.02 510.2 62.56 501.65 58.29 494.5C54.03 487.35 48.95 478.35 47.02 474.5C45.08 470.65 41.75 463.45 39.62 458.5C37.49 453.55 35.17 448.15 34.46 446.5C33.75 444.85 31.53 438.77 29.53 433C27.52 427.23 24.53 417.32 22.88 411C21.24 404.68 19.23 396.13 18.43 392C17.63 387.88 16.06 377.75 14.94 369.5C13.39 358.17 12.87 348.63 12.79 330.5C12.7 311.18 13.1 303.38 14.82 290.5C16 281.7 18.13 269.32 19.55 263C20.97 256.68 23.04 248.35 24.15 244.5C25.26 240.65 26.54 236.15 26.99 234.5C27.43 232.85 28.69 229.03 29.78 226C30.86 222.97 33.43 216.22 35.47 211C37.52 205.78 40.75 198.13 42.65 194C44.56 189.88 46.55 185.82 47.07 185C47.59 184.18 48.31 182.82 48.68 182C49.05 181.18 51.89 176 54.99 170.5C58.1 165 63.68 156.11 67.39 150.75C71.1 145.39 74.55 141 75.07 141ZM327.62 141C328.93 141 330.01 141.34 330.02 141.75C330.03 142.16 329.49 143.06 328.82 143.75C328.15 144.44 327.24 145 326.8 145C326.36 145 325.83 144.1 325.62 143C325.33 141.45 325.79 141 327.62 141ZM163 173.35C164.38 173.63 166.74 174.34 168.25 174.93C169.76 175.52 170.99 176.56 170.98 177.25C170.97 177.94 169.72 180.97 168.21 184C166.69 187.03 163.44 192.98 160.98 197.24C158.17 202.08 155.94 204.88 155 204.73C154.02 204.57 153.18 202.59 152.58 198.99C151.92 195.06 152.04 191.8 152.99 187.5C153.73 184.2 154.76 180.6 155.29 179.5C155.82 178.4 157.21 176.45 158.37 175.17C159.88 173.52 161.23 172.99 163 173.35ZM20.54 217.33C20.59 217.57 19.55 221.53 18.23 226.14C16.9 230.74 14.98 236.75 13.96 239.5C12.94 242.25 12.08 244.05 12.05 243.5C12.01 242.95 13.89 236.74 16.22 229.69C18.55 222.65 20.49 217.09 20.54 217.33ZM224.97 221.16C225.81 221.61 228.75 223.99 231.5 226.45C235.5 230.03 236.3 231.25 235.5 232.56C234.95 233.46 232.83 235.16 227.09 238.5L223.35 236.5C221.3 235.4 217.57 233.82 215.06 233C212.55 232.18 210.5 230.99 210.5 230.36C210.5 229.73 213.41 227.22 216.97 224.78C221.43 221.73 223.92 220.6 224.97 221.16ZM10.55 249C10.76 249 10.69 250.69 10.39 252.75C10.09 254.81 9.09 259.55 8.17 263.27C7.25 267 6.28 270.05 6 270.05C5.72 270.05 5.84 268.57 6.26 266.77C6.67 264.97 7.72 260.24 8.59 256.25C9.46 252.26 10.34 249 10.55 249ZM258 254.01C258.27 253.99 262.89 258.48 268.25 263.99C273.61 269.49 278 274.68 278 275.5C278 276.32 277.1 277.45 276 278C274.9 278.55 273.77 279.9 273.5 281C273.23 282.1 272.32 283 271.5 283C270.68 283 269.13 281.54 268.07 279.75C267.01 277.96 264.87 274.68 263.32 272.45C261.77 270.21 259.82 267.72 259 266.91C258.18 266.09 256.38 263.7 252.5 257.76L255 255.9C256.38 254.88 257.73 254.03 258 254.01Z" />
		<path id="Path 10" class="shp0" d="M135.49 510.91C134.67 511.78 134.33 512.84 134.75 513.25C135.16 513.67 136.33 513.22 137.34 512.25C138.8 510.86 139.11 510.81 138.84 512C138.64 512.9 139.1 513.38 140 513.21C140.82 513.06 142.06 513.62 142.75 514.46C143.54 515.43 143.63 516.19 143 516.5C142.45 516.77 142 516.55 142 516C142 515.45 141.55 515.23 141 515.5C140.45 515.77 140 516.45 140 517C140 517.55 141.13 519.13 142.5 520.5C144.28 522.28 144.57 523 143.5 523C142.68 523 141.78 522.33 141.5 521.5C141.22 520.67 140.32 520 139.5 520C138.68 520 137.56 519.21 137.02 518.25C136.33 517.02 135.81 516.84 135.27 517.66C134.85 518.29 134.5 520.09 134.5 521.66L134.5 524.5C164.64 524.96 167 524.78 167 523.5C167 522.67 166.44 521.81 165.75 521.58C165.06 521.35 165.29 521.12 166.25 521.08C167.21 521.04 168.39 520.21 168.86 519.25C169.48 517.98 169.9 517.84 170.36 518.75C170.71 519.44 170.55 520 170 520C169.45 520 169 520.9 169 522C169 523.24 169.85 524.21 171.25 524.55C172.49 524.85 176.65 524.96 180.5 524.8L187.5 524.5C188.37 517.1 188.18 516.13 187.25 516.5C186.56 516.77 186 516.55 186 516C186 515.45 186.5 514.82 187.12 514.6C187.87 514.32 187.79 513.84 186.87 513.13C185.88 512.36 185.39 512.4 185.1 513.28C184.88 513.95 183.72 515.4 182.53 516.5C181.34 517.6 180.07 519.17 179.71 520C179.25 521.06 179.11 520.91 179.25 519.5C179.36 518.4 179.12 516.94 178.73 516.25C178.33 515.56 176.43 515 174.5 515C172.57 515 171 514.55 171 514C171 513.45 171.9 513.23 173 513.5C174.32 513.83 175.19 513.41 175.55 512.25C175.87 511.23 176.4 510.92 176.8 511.5C177.19 512.05 178.51 513.06 179.75 513.75C180.99 514.44 182.22 515 182.5 515C182.78 515 182.89 514.1 182.75 513C182.61 511.85 181.75 511 180.75 511C179.79 511 178.93 510.55 178.84 510C178.74 509.35 171.15 509.05 157.83 509.16C140.22 509.3 136.75 509.57 135.49 510.91ZM213.68 509.71C213.42 510.15 210.39 519.27 206.95 530C203.52 540.73 200.49 550.85 200.23 552.5C199.97 554.15 199.24 556.1 198.62 556.83C197.77 557.83 197.87 558.38 199 559.06C199.99 559.66 200.07 559.97 199.25 559.98C198.56 559.99 198 560.67 198 561.5C198 562.33 197.66 562.99 197.25 562.97C196.84 562.96 195.67 565.77 194.65 569.22C193.64 572.67 192.74 578.42 192.65 582L192.5 588.5C201.8 588.54 205.27 588.32 206.2 588.03C207.34 587.68 208.01 586.23 208.2 583.71C208.37 581.62 208.05 579.42 207.5 578.81C206.8 578.04 206.95 577.87 208 578.25C209.19 578.69 210.47 575.29 214.23 561.65C216.83 552.22 219.7 541.35 220.62 537.5C221.53 533.65 222.47 529.83 222.71 529C222.95 528.17 224.61 533.13 226.4 540C228.2 546.88 229.96 553.51 230.33 554.75C230.98 556.92 230.77 557 224.5 557L218 557C215.68 567.08 215 570.45 215 571C215 571.6 219 572 225 572L235 572C238.23 583.24 239.35 587.06 239.58 587.75C239.88 588.63 242.69 589 249 589C254.33 589 258 588.59 258 588C258 587.45 254.36 575.86 249.92 562.25C245.48 548.64 239.74 531.2 237.17 523.5L232.5 509.5C218.3 509.06 213.95 509.28 213.68 509.71ZM265.53 510.36C266.2 511.13 266.11 511.25 265.25 510.74C264.56 510.33 263.34 510.51 262.53 511.12C261.73 511.74 261.03 512.75 260.99 513.37C260.94 514.15 261.39 514.11 262.46 513.25C263.5 512.41 264.41 512.32 265.25 512.99C265.94 513.54 266.86 513.65 267.31 513.24C267.75 512.83 268.53 513.17 269.04 514C269.55 514.83 270 515.95 270.03 516.5C270.06 517.05 269.37 516.83 268.5 516C267.07 514.65 266.92 514.73 266.96 516.75C266.98 517.99 267.9 519.9 269 521C270.1 522.1 270.55 523 270 523C269.45 523 268.32 522.33 267.5 521.5C266.68 520.67 265.55 520 265 520C264.45 520 263.75 518.99 263.44 517.75C262.92 515.64 262.82 515.62 261.83 517.34C261.26 518.35 260.94 520.38 261.14 521.84L261.5 524.5C286.69 524.89 294.01 524.66 294.02 524.25C294.03 523.84 293.46 522.93 292.77 522.23C291.74 521.21 291.93 520.97 293.75 520.98C295.08 520.99 296 521.62 296 522.5C296 523.33 297.01 524.25 298.25 524.55C299.49 524.85 303.65 524.96 307.5 524.8L314.5 524.5C314.89 517.91 314.55 515.1 314 514C313.29 512.57 313.34 511.93 314.19 511.75C314.84 511.61 315.07 510.94 314.69 510.25C314.31 509.56 313.55 509 313 509C312.45 509 312.09 509.79 312.19 510.75C312.3 511.71 311.62 513.74 310.69 515.25C309.76 516.76 308.66 518.02 308.25 518.04C307.84 518.07 306.82 517.37 306 516.5C305.18 515.63 303.49 514.93 302.25 514.96C301.01 514.98 299.66 515.54 299.25 516.2C298.76 516.99 299.01 517.22 300 516.87C300.86 516.57 302.25 517.34 303.25 518.67C304.21 519.95 305 521.23 305 521.5C305 521.77 304.55 522 304 522C303.45 522 302.8 521.21 302.54 520.25C302.29 519.29 301.17 518.16 300.04 517.75C298.59 517.22 297.72 517.5 297.03 518.75C296.5 519.71 296.03 520.05 295.99 519.5C295.94 518.95 296.61 517.94 297.46 517.25C298.43 516.46 298.73 515.35 298.27 514.25C297.75 513.01 297.9 512.72 298.77 513.25C299.46 513.67 300.89 513.23 302.03 512.25C303.38 511.09 304.05 510.92 304.03 511.75C304.01 512.44 304.79 513.23 305.75 513.5C306.71 513.78 307.95 514.23 308.5 514.5C309.05 514.78 309.5 514.1 309.5 513C309.5 511.76 308.83 511 307.75 511C306.79 511 305.95 510.56 305.88 510.01C305.81 509.39 298.07 509.06 285.17 509.13C270.04 509.21 264.82 509.53 265.53 510.36ZM323 509.77C322.18 510.06 321.17 510.79 320.77 511.4C320.36 512 320 512.95 319.97 513.5C319.94 514.05 320.68 513.83 321.62 513C322.91 511.87 323.41 511.81 323.66 512.75C323.87 513.51 324.62 513.71 325.59 513.25C326.58 512.78 327.51 513.06 328.07 514C328.57 514.83 328.98 515.84 328.98 516.25C328.99 516.66 328.1 516.77 327 516.5C325.9 516.23 325 516.23 325 516.5C325 516.77 325.56 518.14 326.25 519.53C326.94 520.92 328.18 522.08 329 522.11C330.33 522.15 330.33 522.22 329 522.7C328.18 523 327.05 522.6 326.5 521.81C325.95 521.02 324.71 520.07 323.75 519.69C322.79 519.31 322.01 518.21 322.02 517.25C322.03 516.12 321.7 515.85 321.1 516.5C320.58 517.05 320.01 519.08 319.83 521L319.5 524.5C351.67 525.18 352.47 525.1 351.92 523.35C351.52 522.08 352.23 520.79 354.17 519.25C356.08 517.73 356.84 517.49 356.5 518.5C356.23 519.33 355.55 520 355 520C354.45 520 354 520.9 354 522C354 523.1 354.68 524.23 355.5 524.5C356.32 524.77 360.6 525 365 525L373 525C373.84 518.41 373.86 515.83 373.58 515C373.3 514.17 372.38 513.16 371.54 512.75C370.41 512.2 369.66 512.82 368.75 515.04C368.06 516.71 367.16 518.06 366.75 518.04C366.34 518.02 365.44 517.13 364.75 516.08C363.81 514.62 362.77 514.29 360.5 514.72C358.6 515.07 357.13 514.79 356.5 513.95C355.72 512.92 355.99 512.78 357.75 513.32C359.31 513.79 360.15 513.54 360.5 512.5C360.92 511.23 361.45 511.3 364 513C365.65 514.1 367.23 515 367.5 515C367.77 515 368 514.1 368 513C368 511.67 367.33 511 366 511C364.9 511 363.96 510.57 363.92 510.05C363.87 509.48 355.93 509.13 344.17 509.17C333.35 509.21 323.82 509.48 323 509.77ZM402.5 510.4C400.3 511.09 397.15 512.38 395.5 513.25C393.85 514.13 390.61 516.79 388.3 519.17C385.99 521.55 382.88 526.2 381.39 529.5C379.39 533.93 378.52 537.79 378.09 544.26C377.64 550.91 377.8 553.01 378.75 553.01C379.44 553 380 553.67 380 554.5C380 555.33 379.44 556.17 378.75 556.38C377.9 556.63 377.82 557.12 378.5 557.9C379.22 558.73 380.33 558.77 382.5 558.01C384.15 557.44 385.61 557.2 385.75 557.49C385.89 557.77 385.77 558.45 385.5 559C385.23 559.55 384.1 560 383 560C381.9 560 380.72 560.79 380.38 561.75C380.04 562.71 380.01 564.4 380.32 565.5C380.62 566.6 382.64 570.2 384.81 573.5C386.97 576.8 390.71 580.97 393.12 582.76C395.53 584.55 398.18 585.77 399 585.47C399.82 585.17 401.18 585.63 402 586.51C402.82 587.38 404.06 588.07 404.75 588.04C405.44 588.02 406 587.1 406 586C406 584.9 405.55 584 405 584C404.45 584 404 583.55 404 583C404 582.45 404.56 582.07 405.25 582.16C405.94 582.24 407.51 582.24 408.75 582.16C410.25 582.05 410.76 581.58 410.27 580.75C409.88 580.06 409.65 578.71 409.77 577.75C409.92 576.59 409.32 576 408 576C406.9 576 405.84 576.56 405.64 577.25C405.44 577.94 404.99 578.16 404.64 577.75C404.29 577.34 404.56 576.41 405.25 575.68C405.94 574.95 406.8 574.39 407.17 574.43C407.53 574.47 408.17 574.16 408.58 573.75C409 573.34 408.47 573.02 407.42 573.03C406.36 573.05 404.26 572.15 402.75 571.03C401.24 569.92 399.1 567.2 398 565C396.9 562.8 395.5 558.64 394.89 555.75C394.29 552.86 393.85 548.92 393.92 547C393.99 545.08 395.04 540.58 396.24 537C397.44 533.42 399.34 529.67 400.46 528.66C401.58 527.65 404.41 525.96 406.75 524.91L411 523C411 509.39 410.88 509 408.75 509.07C407.51 509.1 404.7 509.7 402.5 510.4ZM414.13 516.12C413.96 523.42 413.98 523.51 416.73 524.15C418.25 524.5 421.02 526.08 422.89 527.65C424.75 529.22 427.21 532.3 428.36 534.5C429.51 536.7 430.46 539.63 430.47 541C430.49 542.94 431.23 543.72 433.76 544.5C435.55 545.05 437.02 545.84 437.01 546.25C437 546.66 438.01 546.69 439.25 546.32C440.86 545.83 441.29 545.97 440.75 546.82C440.34 547.47 438.43 548 436.5 548C434.2 548 432.67 547.4 432.03 546.25C431.3 544.93 431.02 545.85 430.88 550C430.78 553.02 430.66 556.25 430.6 557.16C430.55 558.07 430.15 559.2 429.72 559.66C429.29 560.12 428.96 561.29 428.97 562.25C428.99 563.21 426.99 566.02 424.53 568.5C422.07 570.98 419.48 572.99 418.78 572.98C418.07 572.97 416.94 574.54 416.25 576.48C415.44 578.76 415.35 580.18 416 580.5C416.55 580.77 416.77 581.45 416.5 582C416.23 582.55 415.55 582.77 415 582.5C414.41 582.21 414.1 583.34 414.25 585.25C414.49 588.32 414.69 588.48 418 588.17C419.93 587.99 423.52 586.93 426 585.83C428.48 584.72 432.45 582.17 434.84 580.16C437.64 577.8 440.39 574.02 442.6 569.5C444.49 565.65 446.29 560.48 446.62 558C447.09 554.45 446.88 553.34 445.61 552.75C444.18 552.08 444.17 551.83 445.5 550.5C446.32 549.67 447 548.33 447 547.5C447 546.67 446.55 545.77 446 545.5C445.33 545.17 445.33 544.5 446 543.5C446.55 542.67 446.77 541.33 446.5 540.5C446.23 539.67 445.32 539 444.5 539C443.68 539 443 539.45 443 540C443 540.6 442.11 540.52 440.75 539.79C438.52 538.6 438.53 538.58 441.5 538.04C443.77 537.62 444.57 536.88 444.8 534.99C444.97 533.62 443.85 530.07 442.3 527.11C440.76 524.14 437.48 519.96 435 517.81C432.52 515.67 428.59 513.03 426.25 511.96C423.91 510.88 420.27 509.72 418.15 509.37L414.3 508.74L414.13 516.12ZM476.5 509.94C474.85 510.36 471.93 511.39 470 512.23C468.07 513.08 464.54 515.51 462.14 517.63C459.5 519.97 456.56 524.06 454.68 528C452.62 532.32 451.23 537.27 450.54 542.73C449.62 549.97 449.7 551.17 451.18 552.73C452.51 554.14 452.62 554.85 451.68 556.2C451.03 557.14 450.73 558.14 451 558.42C451.27 558.71 452.96 558.51 454.75 557.97C456.89 557.33 458.17 557.34 458.5 558C458.77 558.55 457.43 559.45 455.5 560C453.57 560.55 452 561.56 452.01 562.25C452.02 562.94 453.06 565.75 454.32 568.5C455.59 571.25 458.29 575.41 460.31 577.75C462.65 580.45 464.45 581.73 465.24 581.25C466.06 580.75 466.23 580.92 465.74 581.75C465.27 582.55 466 583.53 467.75 584.47C469.26 585.28 470.84 585.73 471.25 585.47C471.66 585.21 473.01 585.68 474.25 586.51C475.49 587.34 477.06 588.01 477.75 588.01C478.55 588 478.82 587.1 478.5 585.5C478.09 583.45 478.45 582.91 480.5 582.5C482.61 582.08 482.8 581.76 481.75 580.46C480.75 579.22 480.75 578.92 481.75 578.96C482.44 578.98 483 578.33 483 577.5C483 576.67 482.11 576 481 576C479.9 576 479 576.45 479 577C479 577.55 478.21 578.01 477.25 578.03C475.67 578.06 475.69 577.87 477.5 576.05C478.6 574.94 479.84 574.25 480.25 574.52C480.66 574.78 481 574.55 481 574C481 573.45 479.99 572.77 478.75 572.49C477.51 572.21 475.59 571.2 474.48 570.24C473.37 569.28 471.46 566.81 470.23 564.75C469 562.69 467.7 559.31 467.33 557.25C466.97 555.19 466.68 551.02 466.7 548C466.72 544.98 467.47 540.25 468.37 537.5C469.27 534.75 471.01 531.33 472.25 529.89C473.49 528.46 476.41 526.32 478.75 525.14C481.3 523.86 483.22 522.1 483.56 520.75C483.86 519.51 483.98 516.48 483.81 514C483.56 510.34 483.13 509.47 481.5 509.33C480.4 509.24 478.15 509.51 476.5 509.94ZM486.46 509.85C485.97 510.43 485.78 513.65 486.03 517L486.5 523.09C495.99 527.53 497.58 529.01 499.99 533.25C501.64 536.14 502.99 539.74 502.99 541.25C503 543.5 503.57 544.14 506.12 544.75C507.84 545.16 509.41 545.84 509.62 546.25C509.83 546.66 511.01 546.68 512.25 546.29C513.88 545.77 514.29 545.91 513.75 546.79C513.34 547.46 511.32 547.91 509.25 547.8C507.19 547.69 505.05 547 504.5 546.28C503.8 545.36 503.51 546.85 503.53 551.23C503.55 554.68 502.99 558.63 502.29 560C501.59 561.38 501.03 562.95 501.05 563.5C501.07 564.05 499.04 566.41 496.54 568.75C494.04 571.09 491.66 573 491.25 573C490.84 573 489.95 574.23 489.28 575.75C488.6 577.27 488.36 579.62 488.74 581C489.24 582.82 489.09 583.3 488.21 582.75C487.47 582.29 486.85 582.68 486.61 583.75C486.39 584.71 486.59 586.17 487.05 587C487.67 588.11 488.88 588.34 491.69 587.9C493.79 587.56 497.27 586.44 499.44 585.4C501.6 584.35 505.2 581.88 507.44 579.89C509.67 577.91 512.71 574.09 514.19 571.39C515.67 568.7 517.57 563.8 518.41 560.5C519.63 555.75 519.69 554.21 518.72 553.09C518.05 552.31 517.5 550.89 517.5 549.93C517.5 548.97 517.89 548.25 518.38 548.34C518.86 548.43 519.42 547.94 519.63 547.25C519.83 546.56 519.55 546 519 546C518.42 546 518.25 544.64 518.59 542.75C519.17 539.52 519.15 539.5 515.09 539.5C512.84 539.5 511 539.84 511 540.25C511 540.66 511.45 541 512 541C512.55 541 513 541.45 513 542C513 542.55 512.1 543 511 543C509.9 543 508.66 542.32 508.25 541.49C507.84 540.66 507.73 539.74 508 539.45C508.27 539.16 510.07 538.75 512 538.53C513.92 538.31 515.84 538.1 516.25 538.06C516.66 538.03 517.23 537.1 517.5 536C517.77 534.9 517.62 533.21 517.15 532.25C516.68 531.29 515.44 528.71 514.4 526.53C513.35 524.34 510.7 520.79 508.5 518.63C506.3 516.46 502.25 513.64 499.5 512.35C496.75 511.07 492.89 509.74 490.93 509.4C488.86 509.04 486.99 509.23 486.46 509.85Z" />
		<path id="Path 11" class="shp1" d="M162.65 512.11C163.17 512.79 162.91 513.52 162 513.99C160.87 514.56 160.81 514.9 161.75 515.38C162.44 515.72 163 515.55 163 515C163 514.45 163.88 514 164.96 514C166.9 514 166.9 514.02 164.98 516.25C163.91 517.49 163.03 518.84 163.02 519.25C163.01 519.66 164.01 519.61 165.25 519.13C166.86 518.51 167.5 517.45 167.5 515.38C167.5 513.21 167.07 512.56 165.75 512.75C164.79 512.89 164 512.55 164 512C164 511.45 163.5 511 162.9 511C162.25 511 162.14 511.45 162.65 512.11ZM175.62 512.25C175.21 513.4 174.31 513.83 173 513.5C171.9 513.23 171 513.45 171 514C171 514.55 172.57 515 174.5 515C176.43 515 178.33 515.56 178.73 516.25C179.12 516.94 179.36 518.4 179.25 519.5C179.11 520.88 179.25 521.04 179.69 520C180.04 519.17 181.04 517.97 181.91 517.31C183.34 516.24 183.3 515.97 181.5 514.59C180.4 513.75 178.94 513.05 178.25 513.03C177.56 513.01 176.83 512.44 176.62 511.75C176.37 510.95 176.01 511.13 175.62 512.25ZM289.37 512.34C289.71 513.25 289.55 514 289 514C288.45 514 288.28 514.56 288.63 515.25C289.11 516.23 289.39 516.21 289.88 515.16C290.22 514.43 290.84 513.87 291.25 513.91C291.66 513.96 292.79 514.01 293.75 514.03C294.71 514.04 295.27 513.82 295 513.52C294.73 513.23 293.82 512.87 293 512.72C292.18 512.57 290.88 512.05 290.12 511.56C289.08 510.89 288.89 511.09 289.37 512.34ZM301.95 512.51C301.13 513.41 299.84 513.82 299 513.45C297.89 512.96 297.69 513.2 298.25 514.4C298.72 515.39 298.41 516.47 297.46 517.25C296.61 517.94 295.94 518.95 295.99 519.5C296.03 520.05 296.5 519.71 297.03 518.75C297.72 517.5 298.59 517.22 300.04 517.75C301.17 518.16 302.29 519.29 302.54 520.25C302.8 521.21 303.45 522 304 522C304.55 522 305 521.77 305 521.5C305 521.23 304.21 519.95 303.25 518.67C302.25 517.34 300.86 516.57 300 516.87C299.01 517.22 298.76 516.99 299.25 516.2C299.66 515.54 301.01 515.01 302.25 515.03C303.49 515.04 305.29 515.71 306.25 516.53C307.21 517.34 308.45 517.77 309 517.5C309.55 517.23 310.01 516.66 310.03 516.25C310.04 515.84 308.81 514.83 307.28 514C305.75 513.18 304.25 512.14 303.95 511.7C303.64 511.26 302.74 511.63 301.95 512.51ZM349.21 513.28C350.15 513.95 350.96 514.95 351.01 515.5C351.05 516.05 350.38 517.17 349.52 518C348.66 518.83 348.19 519.61 348.48 519.75C348.76 519.89 349.9 519.55 351 519C352.33 518.33 352.83 517.33 352.5 516C352.2 514.8 352.5 513.99 353.25 513.98C354.08 513.97 354 513.65 353 513C352.18 512.47 350.6 512.04 349.5 512.05C347.66 512.06 347.63 512.16 349.21 513.28Z" />
		<path id="Path 12" class="shp0" d="M153.08 539.08L153 550L158.5 548.7C155.4 552 154.28 552.79 154 552.58C153.72 552.36 153.39 560.25 153.25 570.09L153 588L170 588C169.51 564.35 169.39 563.71 167.25 562.88C166.01 562.4 164.78 561.55 164.5 561C164.22 560.45 164.68 560 165.5 560C166.32 560 167 560.45 167 561C167 561.55 167.79 562.01 168.75 562.02C170.13 562.03 170.25 561.77 169.29 560.77C168.56 560 168.41 558.9 168.91 558C169.37 557.17 169.8 551.21 169.87 544.75C169.97 535.51 169.68 532.68 168.5 531.5C167.68 530.67 167 529.77 167 529.5C167 529.23 167.68 529.23 168.5 529.5C169.32 529.77 169.96 529.56 169.92 529.02C169.87 528.46 166.28 528.06 161.5 528.1L153.16 528.16L153.08 539.08ZM280.13 539C280.01 549.53 280.09 549.98 282 549.5C283.1 549.23 284 549.23 284 549.5C284 549.77 283.32 550.67 282.5 551.5C281.68 552.33 280.79 552.66 280.53 552.25C280.27 551.84 280.04 559.71 280.03 569.75L280 588L296 588C296 566.18 295.68 562.99 294.75 562.97C294.06 562.95 292.6 562.32 291.5 561.56C289.52 560.2 289.53 560.17 291.75 559.59C293.32 559.18 293.84 559.38 293.49 560.25C293.21 560.94 293.62 561.5 294.4 561.5C295.56 561.5 295.84 558.8 295.91 546.75C295.97 537.83 295.61 531.8 295 531.5C294.45 531.23 294 530.55 294 530C294 529.45 294.45 529.23 295 529.5C295.55 529.77 296 529.55 296 529C296 528.42 292.71 528 288.13 528L280.26 528L280.13 539ZM339 529.5C339 530.33 338.86 532.46 338.69 534.25C338.52 536.04 338.85 538.08 339.44 538.79C340.21 539.73 340.15 540.08 339.25 540.04C338.52 540.02 338 541.24 338 543C338 545 338.5 546 339.5 546C340.32 546 341.34 546.53 341.75 547.18C342.29 548.03 341.86 548.17 340.25 547.68C338.69 547.21 338.1 547.38 338.34 548.25C338.53 548.94 339.66 549.39 340.84 549.25C342.03 549.11 343 549.45 343 550C343 550.55 342.21 551.3 341.25 551.66C340.29 552.02 339.05 552.2 338.5 552.05C337.95 551.91 338.06 552.51 338.75 553.39C339.44 554.28 339.66 555.18 339.25 555.4C338.84 555.62 338.39 563.05 338.25 571.9L338 588L355 588C355 564.24 354.83 563 353.25 563.04C352.29 563.07 350.94 562.39 350.25 561.54C349.23 560.29 349.28 559.91 350.5 559.5C351.32 559.23 352 559.56 352 560.25C352 560.94 352.56 561.54 353.25 561.58C354.19 561.65 354.56 557.96 354.75 546.83C354.96 534.38 354.76 531.92 353.5 531.5C352.68 531.23 352.23 530.55 352.5 530C352.77 529.45 353.45 529.23 354 529.5C354.55 529.77 355 529.55 355 529C355 528.42 351.67 528 347 528C340.56 528 339 528.29 339 529.5Z" />
		<path id="Path 13" class="shp1" d="M435.64 540.25C435.34 540.94 435.42 541.85 435.8 542.28C436.19 542.71 437.29 543.04 438.25 543.03C439.21 543.01 440.01 542.66 440.02 542.25C440.03 541.84 439.46 540.93 438.77 540.23C438.07 539.54 437.2 538.97 436.83 538.98C436.47 538.99 435.93 539.56 435.64 540.25ZM508.17 540.75C508.36 541.71 509.53 542.61 510.76 542.75C511.99 542.89 513 542.77 513 542.5C513 542.23 512.33 541.33 511.5 540.5C510.68 539.67 509.51 539 508.91 539C508.31 539 507.98 539.79 508.17 540.75ZM385.52 547.65C385.05 548.02 384.74 548.93 384.83 549.67C384.93 550.4 386.01 551.19 387.25 551.42C388.49 551.66 390.06 551.66 390.75 551.42C391.44 551.19 392 550.55 392 550C392 549.45 391.21 548.77 390.25 548.5C389.29 548.22 388.02 547.76 387.43 547.48C386.85 547.19 385.98 547.27 385.52 547.65ZM457.4 548.25C457 548.97 457.51 550.04 458.6 550.77C459.64 551.46 460.73 552.03 461 552.03C461.27 552.03 462.4 551.37 463.5 550.55C465.47 549.08 465.47 549.06 463.25 549.03C462.01 549.01 461 548.55 461 548C461 547.45 460.35 547 459.55 547C458.75 547 457.78 547.56 457.4 548.25ZM387.25 560.49C386.01 561.32 384.32 561.77 383.5 561.5C382.63 561.21 381.78 561.74 381.49 562.75C381.21 563.71 381.23 564.73 381.54 565C381.86 565.27 382.42 564.93 382.81 564.22C383.19 563.52 384.18 563.21 385 563.53C385.84 563.86 386.83 563.43 387.25 562.56C387.79 561.43 388.77 561.19 390.75 561.67C393.28 562.28 393.38 562.2 392 560.62C391.18 559.68 390.27 558.93 390 558.95C389.73 558.97 388.49 559.66 387.25 560.49ZM460 560.95C458.34 562.22 457.08 562.55 456.25 561.93C455.39 561.29 454.84 561.55 454.49 562.75C454.21 563.71 454.22 564.73 454.52 565C454.81 565.27 455.04 564.94 455.03 564.25C455.01 563.38 455.84 563.21 457.75 563.7C459.77 564.22 460.3 564.08 459.75 563.2C459.31 562.5 459.63 561.79 460.5 561.5C461.32 561.23 462.72 561.34 463.6 561.75C464.83 562.33 465.07 562.09 464.6 560.75C464.27 559.79 463.66 559.01 463.25 559.02C462.84 559.03 461.38 559.9 460 560.95ZM201.03 582.5C201.01 583.6 201.89 585.06 203 585.75C204.82 586.89 205 586.75 204.98 584.25C204.97 582.2 204.75 581.88 204.1 583C203.36 584.27 203.06 584.19 202.15 582.5L201.06 580.5L201.03 582.5Z" />
	</g>
</svg>